<?xml version='1.0' encoding='utf-8'?>
<svg xmlns="http://www.w3.org/2000/svg" data-name="Layer 1" viewBox="0 0 1e3 530.42"> <defs> <style>.cls-1{fill:#f7931e;}.cls-2{fill:#b71622;}.cls-3{fill:#ff1d25;}.cls-4{fill:#7ac943;}.cls-5{fill:#603813;}.cls-6{fill:#d9e021;}</style> </defs> <rect class="cls-1" x="45.45" y="412.03" width="909.09" height="118.4" rx="25" ry="25"/> <rect class="cls-2" x="45.45" y="281.79" width="454.55" height="59.2" rx="10" ry="10"/> <rect class="cls-2" x="500" y="281.79" width="454.55" height="59.2" rx="10" ry="10"/> <rect class="cls-3" x="272.73" y="281.79" width="454.55" height="59.2" rx="10" ry="10"/> <path class="cls-4" transform="translate(-100 -335)" d="M1100,824s-214.78-44.4-272.73-44.4S600,824,600,824s-170.45-44.4-227.27-44.4S100,824,100,824l45.45-88.8h909.09Z"/> <rect class="cls-5" x="15.15" y="332.11" width="969.7" height="74" rx="25" ry="25"/> <path class="cls-6" transform="translate(-100 -335)" d="M560.81,796,297,667.11H903L639.19,796A89.5,89.5,0,0,1,560.81,796Z"/> <path class="cls-1" transform="translate(-100 -335)" d="m147.75 616.79h903.1c22.68 0 38.41-24.25 30.79-47.31-25.47-77 2.71-233.79-480-234.48-486-0.7-463.38 154.1-485.41 236.85-5.94 22.52 9.77 44.94 31.52 44.94z"/> </svg>